<?xml version="1.0" encoding="UTF-8"?>
<svg width="21px" height="21px" viewBox="0 0 21 21" version="1.1" xmlns="http://www.w3.org/2000/svg" xmlns:xlink="http://www.w3.org/1999/xlink">
    <title>Icons/Calendar</title>
    <defs>
        <path d="M1.95399252e-14,18.3333331 L1.95399252e-14,18.3333334 C1.95399252e-14,19.2538083 0.746192573,20 1.66666674,20 L18.3333334,20 L18.3333333,20 C19.2538083,20 20,19.2538083 20,18.3333334 L20,9.1666668 L1.95399252e-14,9.1666668 L1.95399252e-14,18.3333331 Z M18.3333334,1.66666665 L15.8333334,1.66666665 L15.8333334,0.833333323 L15.8333334,0.833333323 C15.8333334,0.373095829 15.4602376,0 15,0 C14.5397626,0 14.1666667,0.373095829 14.1666667,0.833333323 L14.1666667,1.66666665 L5.83333341,1.66666665 L5.83333341,0.833333323 L5.83333341,0.833333323 C5.83333341,0.373095829 5.46023757,0 5,0 C4.53976257,0 4.16666674,0.373095829 4.16666674,0.833333323 L4.16666674,1.66666665 L1.66666674,1.66666665 L1.66666667,1.66666665 C0.746191667,1.66666669 0,2.41285914 0,3.33333329 C0,3.33333329 0,3.33333329 0,3.33333329 L0,7.5 L20,7.5 L20,3.33333329 L20,3.33333329 C20,2.4128583 19.2538075,1.66666665 18.3333333,1.66666665 L18.3333334,1.66666665 Z M5.00000007,5.83333326 L5.00000004,5.83333326 C4.53976254,5.83333326 4.1666667,5.46023743 4.1666667,4.99999994 C4.1666667,4.53976244 4.53976254,4.16666661 5.00000004,4.16666661 C5.46023754,4.16666661 5.83333337,4.53976244 5.83333337,4.99999994 L5.83333337,4.9999999 C5.83333337,5.46023739 5.46023754,5.83333326 5.00000004,5.83333326 L5.00000007,5.83333326 Z M15.0000001,5.83333326 L15,5.83333326 C14.5397625,5.83333326 14.1666667,5.46023743 14.1666667,4.99999994 C14.1666667,4.53976244 14.5397625,4.16666661 15,4.16666661 C15.4602375,4.16666661 15.8333334,4.53976244 15.8333334,4.99999994 L15.8333334,4.9999999 C15.8333334,5.46023739 15.4602375,5.83333326 15,5.83333326 L15.0000001,5.83333326 Z" id="path-1"></path>
    </defs>
    <g id="Design-System" stroke="none" stroke-width="1" fill="none" fill-rule="evenodd">
        <g id="Artboard" transform="translate(-134.000000, -306.000000)">
            <g id="Icons/Calendar" transform="translate(134.500000, 306.250000)">
                <mask id="mask-2" fill="white">
                    <use xlink:href="#path-1"></use>
                </mask>
                <use id="Fill" fill="#101E39" xlink:href="#path-1"></use>
            </g>
        </g>
    </g>
</svg>