<?xml version="1.0" encoding="UTF-8"?>
<svg width="33px" height="25px" viewBox="0 0 33 25" version="1.1" xmlns="http://www.w3.org/2000/svg" xmlns:xlink="http://www.w3.org/1999/xlink">
    <title>Combined Shape Copy 2</title>
    <g id="App-Alumno" stroke="none" stroke-width="1" fill="none" fill-rule="evenodd">
        <g id="My-Pay-Methods" transform="translate(-40.000000, -420.000000)" fill="#000000" fill-rule="nonzero">
            <path d="M73,420.692894 L73,444.067894 L40,444.067894 L40,420.692894 L73,420.692894 Z M71.625,430.671894 L41.375,430.671894 L41.375,442.692894 L71.625,442.692894 L71.625,430.671894 Z M54.1311615,437.547091 L54.1311615,438.922091 L43.7668227,438.922091 L43.7668227,437.547091 L54.1311615,437.547091 Z M62.627282,434.797091 L62.627282,436.172091 L43.7668227,436.172091 L43.7668227,434.797091 L62.627282,434.797091 Z M71.625,426.546894 L41.375,426.546894 L41.375,429.296894 L71.625,429.296894 L71.625,426.546894 Z M71.625,422.067894 L41.375,422.067894 L41.375,425.171894 L71.625,425.171894 L71.625,422.067894 Z" id="Combined-Shape-Copy-2"></path>
        </g>
    </g>
</svg>