<?xml version="1.0" encoding="UTF-8"?>
<svg width="17px" height="21px" viewBox="0 0 17 21" version="1.1" xmlns="http://www.w3.org/2000/svg" xmlns:xlink="http://www.w3.org/1999/xlink">
    <title>Icons/Sports/Ski</title>
    <g id="Design-System" stroke="none" stroke-width="1" fill="none" fill-rule="evenodd">
        <g id="Artboard" transform="translate(-278.000000, -548.000000)" fill="#000000">
            <g id="Icons/Sports/Ski" transform="translate(278.490536, 548.250000)">
                <path d="M14.1125112,18.4967062 L9.29313143,15.9495815 L10.9056996,12.8985292 L11.2355431,12.2800727 C11.4187894,11.9364857 11.4187894,11.542506 11.2676112,11.2126625 C12.6725001,10.3544587 13.3795257,9.92230261 13.388688,9.9161944 C13.9311175,10.329797 14.3747344,10.4331976 14.7195388,10.2263963 C15.2367455,9.9161944 15.3173562,9.3160625 15.0470678,8.91292047 L16.1786142,8.22116538 C16.3297924,8.12954219 16.3893475,7.93255233 16.3023055,7.78137407 C16.2106823,7.62561464 16.0091113,7.57064073 15.857933,7.66684508 L14.6714127,8.39066828 C14.6576692,8.3998306 14.6439257,8.40899292 14.6301823,8.41815524 L11.4279518,4.60204936 L10.7224532,3.70872326 C10.0077923,2.80165367 8.60137634,2.90243918 8.02415024,3.90571312 L5.67859657,7.96462045 C5.15634438,8.87169003 5.49076903,10.0353045 6.41616325,10.5254886 L7.63475168,11.1668509 L8.95870678,11.8677684 L5.53199946,13.9567771 L1.0241385,11.5745741 C0.685132694,11.3959089 0.259084859,11.5241814 0.0804196377,11.8677684 C-0.0982455835,12.2067742 0.030026883,12.632822 0.373613847,12.8114872 L4.14390813,14.8042916 L1.05162546,16.6917293 C0.900447191,16.7833525 0.840892117,16.9803424 0.927934148,17.1315206 C0.987489222,17.2368873 1.09743705,17.2918612 1.20738488,17.2918612 C1.26235879,17.2918612 1.32191387,17.2781177 1.37230662,17.2460496 L4.79901394,15.161622 L13.4574054,19.7382004 C15.7754721,20.7964483 16.3801852,18.3088786 16.3939287,18.2447424 C15.8487707,19.325896 14.1125112,18.4967062 14.1125112,18.4967062 Z M10.7270344,10.6354364 L9.89766994,9.9161944 L8.48693895,8.62888858 L10.4063532,6.37037694 L12.9718025,9.42601033 L10.8553068,10.7133162 C10.8140764,10.6858292 10.7728459,10.6583422 10.7270344,10.6354364 Z M6.19168643,14.3095264 L8.84875895,12.6923771 L7.5981024,15.0562554 L6.19168643,14.3095264 Z M11.054871,3.0864941 C11.9071828,3.0864941 12.5981181,2.39555886 12.5981181,1.54324705 C12.5981181,0.690935239 11.9071828,0 11.054871,0 C10.2025592,0 9.51162399,0.690935239 9.51162399,1.54324705 C9.51162399,2.39555886 10.2025592,3.0864941 11.054871,3.0864941 Z" id="Combined-Shape"></path>
            </g>
        </g>
    </g>
</svg>