<?xml version="1.0" encoding="UTF-8"?>
<svg width="12px" height="21px" viewBox="0 0 12 21" version="1.1" xmlns="http://www.w3.org/2000/svg" xmlns:xlink="http://www.w3.org/1999/xlink">
    <title>Icons/Sports/Golf</title>
    <g id="Design-System" stroke="none" stroke-width="1" fill="none" fill-rule="evenodd">
        <g id="Artboard" transform="translate(-401.000000, -548.000000)" fill="#000000">
            <g id="Icons/Sports/Golf" transform="translate(401.345174, 548.250000)">
                <path d="M1.39156402,0.310074259 C1.61294708,-0.0103156075 2.05567634,-0.0963475851 2.38063688,0.117626549 L10.5898347,5.52813117 C10.6053529,5.54191693 10.8651076,5.72378573 10.9236417,6.04030526 C10.9941187,6.45199813 10.7188827,6.84533456 10.309254,6.91754392 L6.48805561,7.60557858 L7.95472759,13.4450636 C7.98539537,13.5656337 8.01182422,13.8462144 7.99070325,13.9737879 L7.32519025,19.2634276 C7.24236512,19.7431646 6.78271698,20.0691941 6.29597651,19.9874379 C5.80779848,19.9063452 5.47856214,19.4534425 5.55858589,18.9737055 L6.20747489,13.8197855 L5.98365905,12.9171133 C5.96744051,12.9611613 1.67074406,19.4217058 1.67074406,19.4217058 C1.42260041,19.8429086 0.879426794,19.9934461 0.448345398,19.7484725 C0.0218346819,19.5080695 -0.128334245,18.9645641 0.120178005,18.5429927 L4.2374753,12.3654618 L2.96431999,7.43889623 C2.87161629,7.03428054 3.17051659,6.61834874 3.5864484,6.55137354 L9.43865019,5.494662 L2.08103623,0.630132383 L1.7641481,1.41087074 C1.61327882,1.64736652 1.35632556,1.76406628 1.12193081,1.60895807 C0.888936755,1.45598776 0.821261215,1.14897819 0.976000821,0.912814146 Z M3.32669375,3.11930952 C4.15431843,3.11930952 4.82436525,3.78021499 4.82436525,4.59515971 C4.82436525,5.41463826 4.15288088,6.07764476 3.32669375,6.07768162 C2.50010117,6.07768162 1.83005434,5.41463826 1.83005434,4.59515971 C1.83005434,3.77984638 2.50013803,3.11930952 3.32669375,3.11930952 Z" id="Combined-Shape"></path>
            </g>
        </g>
    </g>
</svg>