<?xml version="1.0" encoding="UTF-8"?>
<svg width="21px" height="20px" viewBox="0 0 21 20" version="1.1" xmlns="http://www.w3.org/2000/svg" xmlns:xlink="http://www.w3.org/1999/xlink">
    <title>Icons/Historic</title>
    <g id="Design-System" stroke="none" stroke-width="1" fill="none" fill-rule="evenodd">
        <g id="Artboard" transform="translate(-617.000000, -444.000000)" fill="#101E39" fill-rule="nonzero">
            <g id="Icons/Historic" transform="translate(617.500000, 444.531160)">
                <path d="M1.66805671,11.1534157 C2.589299,11.1534157 3.33611343,11.9002301 3.33611343,12.8214724 L3.33611343,17.2696236 C3.33611343,18.1908659 2.589299,18.9376803 1.66805671,18.9376803 C0.746814429,18.9376803 0,18.1908659 0,17.2696236 L0,12.8214724 C0,11.9002301 0.746814429,11.1534157 1.66805671,11.1534157 Z M18.3319433,6.65917042 C19.2531856,6.65917042 20,7.40598485 20,8.32722714 L20,17.2696236 C20,18.1908659 19.2531856,18.9376803 18.3319433,18.9376803 C17.410701,18.9376803 16.6638866,18.1908659 16.6638866,17.2696236 L16.6638866,8.32722714 C16.6638866,7.40598485 17.410701,6.65917042 18.3319433,6.65917042 Z M7.22268557,3.41143555 C8.14392786,3.41143555 8.89074229,4.15824997 8.89074229,5.07949226 L8.89074229,17.2696236 C8.89074229,18.1908659 8.14392786,18.9376803 7.22268557,18.9376803 C6.30144329,18.9376803 5.55462886,18.1908659 5.55462886,17.2696236 L5.55462886,5.07949226 C5.55462886,4.15824997 6.30144329,3.41143555 7.22268557,3.41143555 Z M12.7773144,0 C13.6985567,0 14.4453711,0.746814429 14.4453711,1.66805671 L14.4453711,17.2696236 C14.4453711,18.1908659 13.6985567,18.9376803 12.7773144,18.9376803 C11.8560721,18.9376803 11.1092577,18.1908659 11.1092577,17.2696236 L11.1092577,1.66805671 C11.1092577,0.746814429 11.8560721,0 12.7773144,0 Z" id="Combined-Shape"></path>
            </g>
        </g>
    </g>
</svg>