<?xml version="1.0" encoding="UTF-8"?>
<svg width="21px" height="12px" viewBox="0 0 21 12" version="1.1" xmlns="http://www.w3.org/2000/svg" xmlns:xlink="http://www.w3.org/1999/xlink">
    <title>Icons/Menu</title>
    <g id="Design-System" stroke="none" stroke-width="1" fill="none" fill-rule="evenodd">
        <g id="Artboard" transform="translate(-661.000000, -448.000000)" fill="#101E39" fill-rule="nonzero">
            <g id="Icons/Menu" transform="translate(661.000000, 448.311976)">
                <path d="M20.0808383,9.53772455 L0.919161677,9.53772455 C0.411881577,9.53772455 0,9.94960613 0,10.4568862 C0,10.9641663 0.411881577,11.3760479 0.919161677,11.3760479 L20.0808383,11.3760479 C20.5881184,11.3760479 21,10.9641663 21,10.4568862 C21,9.94960613 20.5881184,9.53772455 20.0808383,9.53772455 Z M20.0808383,4.76886228 L0.919161677,4.76886228 C0.411881577,4.76886228 0,5.18074385 0,5.68802395 C0,6.19530405 0.411881577,6.60718563 0.919161677,6.60718563 L20.0808383,6.60718563 C20.5881184,6.60718563 21,6.19530405 21,5.68802395 C21,5.18074385 20.5881184,4.76886228 20.0808383,4.76886228 Z M20.0808383,0 L0.919161677,0 C0.411881577,0 0,0.411881577 0,0.919161677 C0,1.42644178 0.411881577,1.83832335 0.919161677,1.83832335 L20.0808383,1.83832335 C20.5881184,1.83832335 21,1.42644178 21,0.919161677 C21,0.411881577 20.5881184,0 20.0808383,0 Z" id="Combined-Shape"></path>
            </g>
        </g>
    </g>
</svg>