<?xml version="1.0" encoding="UTF-8"?>
<svg width="19px" height="18px" viewBox="0 0 19 18" version="1.1" xmlns="http://www.w3.org/2000/svg" xmlns:xlink="http://www.w3.org/1999/xlink">
    <title>Icons/photo</title>
    <g id="Design-System" stroke="none" stroke-width="1" fill="none" fill-rule="evenodd">
        <g id="Artboard" transform="translate(-704.000000, -445.000000)" fill="#101E39">
            <g id="Icons/photo" transform="translate(704.500000, 445.900000)">
                <path d="M15.7500002,2.20909086 L13.9050002,2.20909086 L12.4050002,0 L5.60250013,0 L4.10250012,2.20909086 L2.25000011,2.20909086 L2.25000001,2.20909086 C1.00736251,2.20909092 0,3.19813766 0,4.41818173 C0,4.41818173 0,4.41818173 0,4.41818173 L0,13.9909088 L0,13.9909091 C0,15.2109532 1.00736251,16.2 2.25000001,16.2 L15.7500001,16.2 L15.75,16.2 C16.9926375,16.2 18,15.2109532 18,13.9909091 L18,4.41818206 L18,4.41818206 C18,3.19813799 16.9926375,2.2090912 15.75,2.2090912 L15.7500002,2.20909086 Z M9.00000015,12.8863634 L8.99999998,12.8863634 C6.92893497,12.8863634 5.24999996,11.2379545 5.24999996,9.20454527 C5.24999996,7.17113603 6.92893497,5.52272716 8.99999998,5.52272716 C11.071065,5.52272716 12.75,7.17113603 12.75,9.20454527 L12.75,9.2045451 C12.75,11.2379543 11.071065,12.8863634 8.99999998,12.8863634 L9.00000015,12.8863634 Z M15.0000002,5.89090897 L15.0000001,5.89090897 C14.5857864,5.89090897 14.2500001,5.56122793 14.2500001,5.15454535 C14.2500001,4.74786277 14.5857864,4.41818173 15.0000001,4.41818173 C15.4142139,4.41818173 15.7500001,4.74786277 15.7500001,5.15454535 L15.7500001,5.15454532 C15.7500001,5.5612279 15.4142139,5.89090897 15.0000001,5.89090897 L15.0000002,5.89090897 Z" id="Fill"></path>
            </g>
        </g>
    </g>
</svg>