<?xml version="1.0" encoding="UTF-8"?>
<svg width="19px" height="21px" viewBox="0 0 19 21" version="1.1" xmlns="http://www.w3.org/2000/svg" xmlns:xlink="http://www.w3.org/1999/xlink">
    <title>Icons/Sports/Horse</title>
    <g id="Design-System" stroke="none" stroke-width="1" fill="none" fill-rule="evenodd">
        <g id="Artboard" transform="translate(-457.000000, -548.000000)" fill="#000000">
            <g id="Icons/Sports/Horse" transform="translate(457.750015, 548.250000)">
                <path d="M16.5625858,2.37896914 C16.6578001,2.42778933 16.7124133,2.5308762 16.7001835,2.63713191 L16.5853125,3.61551634 C16.6961234,3.75187619 16.7922784,3.89734651 16.855705,4.05331366 L18.1916751,7.35308348 C18.3561586,7.75909321 18.1607293,8.22135014 17.7544224,8.38593262 C17.4799203,8.49713967 17.1784333,8.44252641 16.9618122,8.27021985 L15.7953265,7.33803141 L14.5259449,9.65028973 L15.0708892,19.021637 C15.183235,19.4349747 14.9389855,19.8609383 14.5259449,19.9730366 C14.1862831,20.0646364 13.8384516,19.9159477 13.6632237,19.6316914 L11.3249613,13.4606086 L9.85675306,13.4606086 L11.4702468,10.0065056 C11.6942949,9.49820123 11.6681023,8.94424551 11.4531152,8.47228396 L12.3843929,6.81275659 C12.6516221,6.77788764 12.8664142,6.68886108 13.0287691,6.54567692 C13.2723015,6.33090068 13.3543293,6.07100405 13.3705094,5.63797691 C13.3815902,5.34142346 13.3381439,5.07465283 13.0925364,4.81448772 C13.1169837,4.75748544 13.2462348,4.56237781 13.3957111,4.34533787 L13.5793777,4.08179751 C13.7315016,3.86579942 13.8700192,3.67433823 13.910352,3.62358702 C14.3298294,3.09904225 14.9928136,2.89133362 15.6087105,3.01962279 L16.2725364,2.41684688 C16.3515103,2.34510199 16.4672231,2.32970333 16.5625858,2.37896914 Z M1.45722352,8.46364059 C2.33086594,7.81197359 3.1760489,8.15771878 3.38370802,9.11530758 C3.64038539,9.00197145 3.92295826,8.93681184 4.22187055,8.93681184 L5.86650466,8.93681184 C6.15571232,9.10545442 7.85174729,9.97782575 8.1481344,10.1366152 L7.2419088,12.0257572 C7.05702583,12.4452346 7.04745471,13.072275 7.33283294,13.4605096 L4.68452359,13.4605096 L3.13763519,19.6048406 C2.9126959,19.9694076 2.43543641,20.0821496 2.07126548,19.8574084 C1.77156098,19.6733176 1.64282619,19.3177125 1.73001926,18.9947862 L2.15379562,11.5487484 C2.14884428,11.4905207 2.13661448,11.4347191 2.13661448,11.375204 C2.13661448,10.9178984 0.163442949,15.422273 0.0188119176,14.8776369 C-0.125819114,14.3330008 0.583581099,9.11530758 1.45722352,8.46364059 Z M9.01129733,2.67009939 C9.70227968,2.85945314 10.1082205,3.57288231 9.91882544,4.26365834 L9.89641989,4.34502805 L10.402216,5.24830612 L11.9825297,5.05416591 C12.4461967,4.9933862 12.8210097,5.12842642 12.8792724,5.60290426 C12.9377001,6.07709327 12.7028324,6.35592334 12.2289735,6.41393846 C12.1736792,6.42074678 11.2790475,6.53243774 10.6310896,6.61043032 L10.3086491,6.6487968 L10.0743006,6.67548164 C10.0152181,6.68187435 9.97734511,6.68548718 9.96720909,6.68548718 C9.69842496,6.68548718 9.57482438,6.29557891 9.41187865,6.08311813 C9.28087011,6.56036057 9.17560473,6.97481295 9.00118801,7.61326809 L10.379109,8.3515373 C10.8597762,8.60880918 11.0606009,9.19296283 10.8407542,9.69149673 L9.48313438,12.7692689 C9.25293072,13.29157 8.63935688,13.5363806 8.10855568,13.3025046 C7.58171568,13.0700315 7.72885187,12.4544358 7.96169634,11.9275133 L8.92901385,9.73362578 L6.95790874,8.88440162 C6.52135116,8.65168095 6.20243305,8.01215298 6.36863853,7.40687291 C6.66387194,6.32926065 7.04674697,4.93396816 7.41810975,3.57799886 C7.60684456,2.88734661 8.32159413,2.48103447 9.01129733,2.67009939 Z M11.3499058,1.15177316 C11.4383605,1.87083116 10.9263982,2.52540968 10.2078077,2.61379765 C9.48928392,2.70221901 8.83443826,2.19109146 8.74605029,1.47203345 C8.65762893,0.75290867 9.16905702,0.0981297932 9.88751397,0.00994217457 C10.6060711,-0.0784791864 11.2614844,0.432715155 11.3499058,1.15177316 Z" id="Combined-Shape"></path>
            </g>
        </g>
    </g>
</svg>