<?xml version="1.0" encoding="UTF-8"?>
<svg width="21px" height="21px" viewBox="0 0 21 21" version="1.1" xmlns="http://www.w3.org/2000/svg" xmlns:xlink="http://www.w3.org/1999/xlink">
    <title>Icons/Home</title>
    <defs>
        <path d="M12.6609227,1.07903594 C10.8713664,-0.36473529 9.15900705,-0.36473529 7.30168668,1.10961615 C6.0634731,2.09251711 3.8517998,3.90134953 0.666666778,6.53611341 C0.245139245,6.88233419 0.000582579536,7.39896324 0,7.94444645 L0,18.1058042 C0.0181032499,19.0974413 0.824861661,19.8931078 1.81665832,19.8974749 C3.23754719,19.8974749 4.30321383,19.8974749 5.01365827,19.8974749 C6.07932491,19.8974749 6.66666662,18.99882 6.66666662,17.9734839 C6.66666662,17.2899265 6.66666662,16.2645904 6.66666662,14.8974756 C6.66666634,13.0565265 8.15904994,11.5641435 10,11.5641435 C11.8409499,11.5641432 13.3333332,13.0565265 13.3333332,14.8974761 C13.3333332,16.2621466 13.3333332,17.2856496 13.3333332,17.9679849 C13.3333332,18.9914878 14.0079332,19.8974749 15.0517832,19.8974749 C15.7476832,19.8974749 16.7915332,19.8974749 18.1833332,19.8974749 C19.1847583,19.8929125 19.9954333,19.0822301 20,18.0808087 L20,7.91945094 C19.9920267,7.38274004 19.7481783,6.87675432 19.3333358,6.53612106 C16.0780979,3.86057847 13.8539602,2.04155009 12.6609227,1.07903594 Z" id="path-1"></path>
    </defs>
    <g id="Design-System" stroke="none" stroke-width="1" fill="none" fill-rule="evenodd">
        <g id="Artboard" transform="translate(-442.000000, -306.000000)">
            <g id="Icons/Home" transform="translate(442.500000, 306.301263)">
                <mask id="mask-2" fill="white">
                    <use xlink:href="#path-1"></use>
                </mask>
                <use id="Fill" fill="#101E39" xlink:href="#path-1"></use>
            </g>
        </g>
    </g>
</svg>