<?xml version="1.0" encoding="UTF-8"?>
<svg width="56px" height="36px" viewBox="0 0 56 36" version="1.1" xmlns="http://www.w3.org/2000/svg" xmlns:xlink="http://www.w3.org/1999/xlink">
    <title>Group 8</title>
    <g id="App-Alumno" stroke="none" stroke-width="1" fill="none" fill-rule="evenodd">
        <g id="Group-8" transform="translate(0.700000, 0.500000)" fill-rule="nonzero">
            <g id="mastercard-svgrepo-com-copy" transform="translate(5.747456, 0.000000)">
                <path d="M8.20796459,34.9225663 L8.20796459,32.5995573 C8.20796459,31.7090707 7.66592919,31.1283184 6.73672565,31.1283184 C6.27212388,31.1283184 5.76880529,31.2831856 5.42035397,31.7865042 C5.14933627,31.3606193 4.76216813,31.1283184 4.18141593,31.1283184 C3.79424778,31.1283184 3.40707964,31.2444689 3.09734513,31.670354 L3.09734513,31.2057521 L2.28429204,31.2057521 L2.28429204,34.9225663 L3.09734513,34.9225663 L3.09734513,32.8705752 C3.09734513,32.2123893 3.44579646,31.9026548 3.98783185,31.9026548 C4.52986725,31.9026548 4.80088495,32.251106 4.80088495,32.8705752 L4.80088495,34.9225663 L5.61393804,34.9225663 L5.61393804,32.8705752 C5.61393804,32.2123893 6.00110618,31.9026548 6.50442476,31.9026548 C7.04646015,31.9026548 7.31747787,32.251106 7.31747787,32.8705752 L7.31747787,34.9225663 L8.20796459,34.9225663 L8.20796459,34.9225663 Z M20.2488938,31.2057521 L18.932522,31.2057521 L18.932522,30.0829645 L18.1194691,30.0829645 L18.1194691,31.2057521 L17.3838495,31.2057521 L17.3838495,31.9413715 L18.1194691,31.9413715 L18.1194691,33.6449114 C18.1194691,34.4966814 18.4679203,35 19.397124,35 C19.7455751,35 20.1327434,34.8838494 20.403761,34.7289822 L20.1714602,34.0320796 C19.9391593,34.1869467 19.6681416,34.2256636 19.4745575,34.2256636 C19.0873895,34.2256636 18.932522,33.9933628 18.932522,33.6061946 L18.932522,31.9413715 L20.2488938,31.9413715 L20.2488938,31.2057521 L20.2488938,31.2057521 Z M27.1404867,31.1283184 C26.6758849,31.1283184 26.3661504,31.3606193 26.1725663,31.670354 L26.1725663,31.2057521 L25.3595132,31.2057521 L25.3595132,34.9225663 L26.1725663,34.9225663 L26.1725663,32.8318583 C26.1725663,32.2123893 26.443584,31.863938 26.9469026,31.863938 C27.1017698,31.863938 27.2953539,31.9026548 27.4502212,31.9413715 L27.6825221,31.1670352 C27.5276549,31.1283184 27.2953539,31.1283184 27.1404867,31.1283184 L27.1404867,31.1283184 L27.1404867,31.1283184 Z M16.7256637,31.5154866 C16.3384955,31.2444689 15.7964602,31.1283184 15.2157079,31.1283184 C14.2865044,31.1283184 13.6670353,31.5929203 13.6670353,32.3285397 C13.6670353,32.9480089 14.1316372,33.2964601 14.9446902,33.4126106 L15.3318584,33.4513273 C15.7577433,33.5287609 15.9900442,33.6449114 15.9900442,33.8384955 C15.9900442,34.1095132 15.6803097,34.3030973 15.1382743,34.3030973 C14.5962389,34.3030973 14.1703539,34.1095132 13.8993362,33.9159291 L13.5121681,34.5353982 C13.9380531,34.8451326 14.5188053,35 15.0995574,35 C16.1836283,35 16.8030973,34.4966814 16.8030973,33.7997787 C16.8030973,33.1415928 16.2997787,32.7931416 15.5254424,32.6769911 L15.1382743,32.6382742 C14.7898229,32.5995573 14.5188053,32.5221238 14.5188053,32.289823 C14.5188053,32.0188052 14.7898229,31.863938 15.2157079,31.863938 C15.6803097,31.863938 16.1449114,32.0575221 16.3772123,32.1736725 L16.7256637,31.5154866 L16.7256637,31.5154866 Z M38.3296459,31.1283184 C37.8650442,31.1283184 37.5553097,31.3606193 37.3617256,31.670354 L37.3617256,31.2057521 L36.5486725,31.2057521 L36.5486725,34.9225663 L37.3617256,34.9225663 L37.3617256,32.8318583 C37.3617256,32.2123893 37.6327432,31.863938 38.1360618,31.863938 C38.2909291,31.863938 38.4845132,31.9026548 38.6393804,31.9413715 L38.8716814,31.1670352 C38.7168142,31.1283184 38.4845132,31.1283184 38.3296459,31.1283184 L38.3296459,31.1283184 L38.3296459,31.1283184 Z M27.9535398,33.0641591 C27.9535398,34.1869467 28.727876,35 29.9280974,35 C30.4701327,35 30.8573009,34.8838494 31.2444689,34.5741149 L30.8573009,33.9159291 C30.5475664,34.14823 30.2378319,34.2643804 29.8893805,34.2643804 C29.2311947,34.2643804 28.7665929,33.7997787 28.7665929,33.0641591 C28.7665929,32.3672566 29.2311947,31.9026548 29.8893805,31.863938 C30.2378319,31.863938 30.5475664,31.9800883 30.8573009,32.2123893 L31.2444689,31.5542034 C30.8573009,31.2444689 30.4701327,31.1283184 29.9280974,31.1283184 C28.727876,31.1283184 27.9535398,31.9413715 27.9535398,33.0641591 L27.9535398,33.0641591 L27.9535398,33.0641591 Z M35.4646017,33.0641591 L35.4646017,31.2057521 L34.6515486,31.2057521 L34.6515486,31.670354 C34.380531,31.3219025 33.9933627,31.1283184 33.4900441,31.1283184 C32.4446902,31.1283184 31.6316371,31.9413715 31.6316371,33.0641591 C31.6316371,34.1869467 32.4446902,35 33.4900441,35 C34.0320796,35 34.4192478,34.8064157 34.6515486,34.4579645 L34.6515486,34.9225663 L35.4646017,34.9225663 L35.4646017,33.0641591 Z M32.4834071,33.0641591 C32.4834071,32.4059732 32.909292,31.863938 33.6061947,31.863938 C34.2643806,31.863938 34.7289823,32.3672566 34.7289823,33.0641591 C34.7289823,33.722345 34.2643806,34.2643804 33.6061947,34.2643804 C32.909292,34.2256636 32.4834071,33.722345 32.4834071,33.0641591 L32.4834071,33.0641591 Z M22.7654866,31.1283184 C21.6814159,31.1283184 20.9070796,31.9026548 20.9070796,33.0641591 C20.9070796,34.2256636 21.6814159,35 22.8042035,35 C23.3462389,35 23.8882742,34.8451326 24.3141591,34.4966814 L23.9269911,33.9159291 C23.6172566,34.14823 23.2300884,34.3030973 22.8429203,34.3030973 C22.3396017,34.3030973 21.8362831,34.0707965 21.7201327,33.4126106 L24.4690264,33.4126106 L24.4690264,33.102876 C24.5077432,31.9026548 23.8108405,31.1283184 22.7654866,31.1283184 L22.7654866,31.1283184 L22.7654866,31.1283184 Z M22.7654866,31.8252211 C23.2688052,31.8252211 23.6172566,32.1349558 23.6946901,32.7157079 L21.7588496,32.7157079 C21.8362831,32.2123893 22.1847345,31.8252211 22.7654866,31.8252211 L22.7654866,31.8252211 Z M42.9369468,33.0641591 L42.9369468,29.7345133 L42.1238937,29.7345133 L42.1238937,31.670354 C41.852876,31.3219025 41.4657078,31.1283184 40.9623894,31.1283184 C39.9170353,31.1283184 39.1039822,31.9413715 39.1039822,33.0641591 C39.1039822,34.1869467 39.9170353,35 40.9623894,35 C41.5044247,35 41.8915929,34.8064157 42.1238937,34.4579645 L42.1238937,34.9225663 L42.9369468,34.9225663 L42.9369468,33.0641591 Z M39.9557522,33.0641591 C39.9557522,32.4059732 40.3816371,31.863938 41.0785398,31.863938 C41.7367256,31.863938 42.2013274,32.3672566 42.2013274,33.0641591 C42.2013274,33.722345 41.7367256,34.2643804 41.0785398,34.2643804 C40.3816371,34.2256636 39.9557522,33.722345 39.9557522,33.0641591 L39.9557522,33.0641591 Z M12.7765487,33.0641591 L12.7765487,31.2057521 L11.9634956,31.2057521 L11.9634956,31.670354 C11.6924778,31.3219025 11.3053097,31.1283184 10.8019911,31.1283184 C9.75663711,31.1283184 8.943584,31.9413715 8.943584,33.0641591 C8.943584,34.1869467 9.75663711,35 10.8019911,35 C11.3440265,35 11.7311947,34.8064157 11.9634956,34.4579645 L11.9634956,34.9225663 L12.7765487,34.9225663 L12.7765487,33.0641591 Z M9.75663711,33.0641591 C9.75663711,32.4059732 10.1825221,31.863938 10.8794247,31.863938 C11.5376106,31.863938 12.0022123,32.3672566 12.0022123,33.0641591 C12.0022123,33.722345 11.5376106,34.2643804 10.8794247,34.2643804 C10.1825221,34.2256636 9.75663711,33.722345 9.75663711,33.0641591 Z" id="Shape" fill="#000000"></path>
                <rect id="Rectangle" fill="#FF5F00" x="16.4546498" y="2.98119855" width="12.1957964" height="21.9137161"></rect>
                <path d="M17.2289823,13.9380531 C17.2289823,9.48561942 19.3196902,5.53650441 22.5331858,2.98119469 C20.17146,1.12278761 17.1902654,0 13.9380531,0 C6.23340706,0 0,6.23340706 0,13.9380531 C0,21.642699 6.23340706,27.8761061 13.9380531,27.8761061 C17.1902654,27.8761061 20.17146,26.7533185 22.5331858,24.8949115 C19.3196902,22.3783184 17.2289823,18.3904868 17.2289823,13.9380531 Z" id="Path" fill="#EB001B"></path>
                <path d="M45.1050885,13.9380531 C45.1050885,21.642699 38.8716814,27.8761061 31.1670354,27.8761061 C27.9148229,27.8761061 24.9336281,26.7533185 22.5719027,24.8949115 C25.824115,22.3396018 27.8761061,18.3904868 27.8761061,13.9380531 C27.8761061,9.48561942 25.7853981,5.53650441 22.5719027,2.98119469 C24.9336281,1.12278761 27.9148229,0 31.1670354,0 C38.8716814,0 45.1050885,6.27212388 45.1050885,13.9380531 Z" id="Path" fill="#F79E1B"></path>
            </g>
            <path d="M2.8,0 L51.8,0 C53.34644,0 54.6,1.25363 54.6,2.8 L54.6,32.2 C54.6,33.74644 53.34644,35 51.8,35 L2.8,35 C1.25363,35 0,33.74644 0,32.2 L0,2.8 C0,1.25363 1.25363,0 2.8,0 Z" id="Path-Copy"></path>
        </g>
    </g>
</svg>