<?xml version="1.0" encoding="UTF-8"?>
<svg width="21px" height="15px" viewBox="0 0 21 15" version="1.1" xmlns="http://www.w3.org/2000/svg" xmlns:xlink="http://www.w3.org/1999/xlink">
    <title>Icons/message</title>
    <g id="Design-System" stroke="none" stroke-width="1" fill="none" fill-rule="evenodd">
        <g id="Artboard" transform="translate(-398.000000, -309.000000)" fill="#192D56">
            <g id="Icons/message" transform="translate(398.500000, 309.083333)">
                <path d="M0,0 L0,0.763666667 L0,13.5696667 L0,14.3333333 L20,14.3333333 L20,13.5696667 L20,0.763666667 L20,0 L0,0 Z M12.2083333,7.35466667 L10.393,9.17866667 C10.1723333,9.38366667 9.827,9.38333333 9.61566667,9.18733333 L7.79133333,7.35466667 L7.80733333,7.339 L1.21566667,0.666666667 L18.7886667,0.666666667 L12.1923333,7.33933333 L12.2083333,7.35466667 Z M6.84133333,7.34433333 L0.666666667,13.285 L0.666666667,1.141 L6.84133333,7.34433333 Z M7.31133333,7.81666667 L9.15233333,9.66633333 C9.38866667,9.88666667 9.692,9.99733333 9.99666667,9.99733333 C10.3043333,9.99733333 10.6133333,9.88433333 10.857,9.65733333 L12.689,7.81666667 L18.768,13.6666667 L1.22866667,13.6666667 L7.31133333,7.81666667 Z M13.159,7.34466667 L19.3333333,1.14066667 L19.3333333,13.285 L13.159,7.34466667 Z" id="Shape"></path>
            </g>
        </g>
    </g>
</svg>