<?xml version="1.0" encoding="UTF-8"?>
<svg width="21px" height="19px" viewBox="0 0 21 19" version="1.1" xmlns="http://www.w3.org/2000/svg" xmlns:xlink="http://www.w3.org/1999/xlink">
    <title>Icons/Sports/Surf</title>
    <g id="Design-System" stroke="none" stroke-width="1" fill="none" fill-rule="evenodd">
        <g id="Artboard" transform="translate(-156.000000, -549.000000)" fill="#000000">
            <g id="Icons/Sports/Surf" transform="translate(152.085445, 546.556649)">
                <path d="M3.30278894,15.1898665 C5.00534194,15.9652867 12.4392615,19.252394 21.9128733,22.236076 C22.030872,22.2697899 22.1151568,22.3877886 22.1151568,22.4889304 C22.0982999,22.6237861 21.9803011,22.7080709 21.8623024,22.6912139 C15.8612245,20.8032343 11.5795565,19.4209636 5.96618869,17.0609891 L3.67364207,18.0218359 C3.50507246,18.1229776 3.26907501,18.1398346 3.10050541,18.0218359 C2.88136492,17.8701232 2.81393708,17.5835549 2.96564973,17.3644144 L4.2973496,16.3529968 C3.89278255,16.1675702 3.47135854,15.9821436 3.04993453,15.7967171 C2.86450796,15.7461462 2.79708012,15.5438627 2.86450796,15.3752931 C2.93193581,15.1898665 3.13421933,15.1224387 3.30278894,15.1898665 Z M10.6494191,2.69345441 L10.7535655,2.69885879 C10.972706,2.73257271 11.1749895,2.85057143 11.2929882,3.01914104 L12.8943994,5.34540158 L16.4175042,6.59281666 C16.6197877,6.67710146 16.7883573,6.79510018 16.94007,6.94681283 L21.4408784,11.0936251 C21.609448,11.2284808 21.7105898,11.4307643 21.7105898,11.6667618 C21.7274467,12.0881858 21.3734506,12.4421819 20.9520265,12.4421819 C20.749743,12.4421819 20.5474595,12.3578971 20.4126038,12.2230415 L17.2434952,9.30678729 L13.8383892,10.9756264 L16.0972219,12.9984616 C16.2995055,13.1838882 16.4175042,13.4535996 16.4006472,13.7570249 L16.4006472,13.8075957 L15.8780814,18.0555498 C15.8106536,18.5612586 15.3723726,18.9321117 14.8498069,18.9152548 C14.2935272,18.8983978 13.8721032,18.4432599 13.8889601,17.8869802 L13.8889601,17.8195523 L14.344098,14.0941641 L11.8998388,11.9027592 L11.8998388,13.6727401 C11.8324109,13.9761653 11.6469844,14.2121628 11.39413,14.3470185 L7.87102522,15.9315728 C7.73616954,15.9990006 7.56759993,16.0495715 7.39903033,16.0327145 C6.8596076,15.9990006 6.43818358,15.5438627 6.45504054,15.0044399 C6.4718975,14.6167298 6.70789495,14.2964476 7.0281772,14.1447349 L9.91071744,12.846749 L9.89386048,9.99792267 C9.97814528,9.4753569 10.2815706,9.05393288 10.7198515,8.80107848 L13.8215323,7.21652419 L11.9335527,6.47481793 C11.815554,6.40739009 11.7144122,6.33996225 11.6469844,6.23882049 L10.0118592,3.86198906 C9.9275744,3.72713337 9.89386048,3.54170681 9.91071744,3.37313721 C9.95285984,3.02195053 10.2174205,2.75270741 10.5483164,2.70198045 L10.6494191,2.69345441 Z M18.4740534,4.04741562 C19.3674723,4.04741562 20.0754646,4.75540796 20.0754646,5.64882687 C20.0754646,6.52538881 19.3674723,7.25023811 18.4740534,7.25023811 C17.5806345,7.25023811 16.8557852,6.52538881 16.8726421,5.64882687 C16.8726421,4.77226492 17.5806345,4.04741562 18.4740534,4.04741562 Z" id="Combined-Shape" transform="translate(12.477055, 12.693351) rotate(-20.000000) translate(-12.477055, -12.693351) "></path>
            </g>
        </g>
    </g>
</svg>